<?xml version="1.0" encoding="utf-8"?>
<!-- Generator: Adobe Illustrator 23.0.0, SVG Export Plug-In . SVG Version: 6.00 Build 0)  -->
<svg version="1.1" id="Слой_1" xmlns="http://www.w3.org/2000/svg" xmlns:xlink="http://www.w3.org/1999/xlink" x="0px" y="0px"
	 viewBox="0 0 150 150" style="enable-background:new 0 0 150 150;" xml:space="preserve">
<style type="text/css">
	.st0{fill:none;stroke:#000000;stroke-width:6;stroke-miterlimit:10;}
</style>
<g>
	<circle class="st0" cx="74" cy="77" r="37"/>
	<line class="st0" x1="73.75" y1="25" x2="73.75" y2="38"/>
	<line class="st0" x1="67.25" y1="24" x2="80.25" y2="24"/>
	<line class="st0" x1="40.38" y1="37.33" x2="48.74" y2="47.28"/>
	<line class="st0" x1="34.76" y1="40.74" x2="44.72" y2="32.38"/>
	<line class="st0" x1="22.75" y1="68.22" x2="35.55" y2="70.47"/>
	<line class="st0" x1="20.63" y1="74.44" x2="22.89" y2="61.64"/>
	<line class="st0" x1="29.09" y1="103.22" x2="40.35" y2="96.72"/>
	<line class="st0" x1="31.48" y1="109.35" x2="24.98" y2="98.09"/>
	<line class="st0" x1="56.45" y1="125.95" x2="60.9" y2="113.73"/>
	<line class="st0" x1="62.22" y1="129.11" x2="50" y2="124.67"/>
	<line class="st0" x1="91.58" y1="125.57" x2="87.14" y2="113.36"/>
	<line class="st0" x1="98.03" y1="124.29" x2="85.82" y2="128.74"/>
	<line class="st0" x1="118.05" y1="103.14" x2="106.79" y2="96.64"/>
	<line class="st0" x1="122.16" y1="98.01" x2="115.66" y2="109.27"/>
	<line class="st0" x1="123.7" y1="69.39" x2="110.9" y2="71.64"/>
	<line class="st0" x1="123.56" y1="62.81" x2="125.81" y2="75.61"/>
	<line class="st0" x1="106.33" y1="39.89" x2="97.97" y2="49.85"/>
	<line class="st0" x1="101.99" y1="34.95" x2="111.95" y2="43.3"/>
	<line class="st0" x1="58.37" y1="34.8" x2="60.77" y2="41.38"/>
	<line class="st0" x1="51.92" y1="36.08" x2="64.14" y2="31.64"/>
	<line class="st0" x1="34.9" y1="54.72" x2="40.97" y2="58.22"/>
	<line class="st0" x1="30.79" y1="59.85" x2="37.29" y2="48.59"/>
	<line class="st0" x1="29.73" y1="85.06" x2="36.62" y2="83.84"/>
	<line class="st0" x1="29.87" y1="91.64" x2="27.61" y2="78.83"/>
	<line class="st0" x1="45.27" y1="111.63" x2="49.77" y2="106.27"/>
	<line class="st0" x1="49.6" y1="116.58" x2="39.64" y2="108.22"/>
	<line class="st0" x1="74.25" y1="122" x2="74.25" y2="115"/>
	<line class="st0" x1="80.75" y1="123" x2="67.75" y2="123"/>
	<line class="st0" x1="103.12" y1="111.31" x2="98.62" y2="105.95"/>
	<line class="st0" x1="108.74" y1="107.9" x2="98.78" y2="116.26"/>
	<line class="st0" x1="118.16" y1="85.01" x2="111.26" y2="83.79"/>
	<line class="st0" x1="120.27" y1="78.78" x2="118.01" y2="91.58"/>
	<line class="st0" x1="112.77" y1="55.19" x2="106.7" y2="58.69"/>
	<line class="st0" x1="110.38" y1="49.06" x2="116.88" y2="60.32"/>
	<line class="st0" x1="89.47" y1="35.81" x2="87.08" y2="42.39"/>
	<line class="st0" x1="83.71" y1="32.65" x2="95.92" y2="37.09"/>
</g>
</svg>
